<svg width="40" height="40" viewBox="0 0 40 40" fill="none" xmlns="http://www.w3.org/2000/svg">
<rect width="40" height="40" rx="8" fill="#FFF2F2"/>
<path d="M34.586 26.5859C31.623 27.9262 28.322 28.3317 25.1228 27.7485C21.9235 27.1653 18.9779 25.6211 16.6784 23.3216C14.3789 21.0221 12.8347 18.0765 12.2515 14.8772C11.6683 11.6779 12.0738 8.37692 13.414 5.41394C11.0552 6.47996 8.9901 8.10233 7.39604 10.1419C5.80197 12.1814 4.72649 14.5772 4.26185 17.1237C3.79721 19.6702 3.95729 22.2915 4.72835 24.7626C5.49941 27.2336 6.85844 29.4807 8.68883 31.3111C10.5192 33.1415 12.7664 34.5006 15.2374 35.2716C17.7085 36.0427 20.3297 36.2028 22.8763 35.7381C25.4228 35.2735 27.8186 34.198 29.8581 32.6039C31.8976 31.0099 33.52 28.9448 34.586 26.5859Z" fill="#10151F"/>
</svg>
